<svg xmlns="http://www.w3.org/2000/svg" viewBox="0 0 24 24" fill="currentColor">
  <!-- Main database cylinder -->
  <ellipse cx="12" cy="4" rx="8" ry="2.5" fill="currentColor"/>
  <path d="M4 4v8c0 1.1 3.6 2 8 2s8-0.9 8-2V4" fill="currentColor"/>
  <path d="M4 12v8c0 1.1 3.6 2 8 2s8-0.9 8-2v-8" fill="currentColor"/>
  
  <!-- Connection lines -->
  <path d="M8 6h8" stroke="currentColor" stroke-width="1" fill="none" opacity="0.6"/>
  <path d="M8 14h8" stroke="currentColor" stroke-width="1" fill="none" opacity="0.6"/>
  
  <!-- Data rows -->
  <rect x="6" y="7" width="12" height="1" rx="0.5" fill="currentColor" opacity="0.3"/>
  <rect x="6" y="9" width="10" height="1" rx="0.5" fill="currentColor" opacity="0.3"/>
  <rect x="6" y="15" width="12" height="1" rx="0.5" fill="currentColor" opacity="0.3"/>
  <rect x="6" y="17" width="8" height="1" rx="0.5" fill="currentColor" opacity="0.3"/>
  
  <!-- Connection indicator -->
  <circle cx="20" cy="12" r="1.5" fill="currentColor" opacity="0.8"/>
  <path d="M18 12h-2" stroke="currentColor" stroke-width="1.5" fill="none"/>
</svg>
